<svg width="13" height="17" viewBox="0 0 13 17" fill="none" xmlns="http://www.w3.org/2000/svg">
<path d="M2.54183 2.16668V14.8333H10.4585V2.16668H2.54183ZM1.75016 0.583344H11.2502C11.4601 0.583344 11.6615 0.666751 11.81 0.815217C11.9584 0.963684 12.0418 1.16505 12.0418 1.37501V15.625C12.0418 15.835 11.9584 16.0363 11.81 16.1848C11.6615 16.3333 11.4601 16.4167 11.2502 16.4167H1.75016C1.5402 16.4167 1.33884 16.3333 1.19037 16.1848C1.0419 16.0363 0.958496 15.835 0.958496 15.625V1.37501C0.958496 1.16505 1.0419 0.963684 1.19037 0.815217C1.33884 0.666751 1.5402 0.583344 1.75016 0.583344ZM6.50016 12.4583C6.71013 12.4583 6.91149 12.5418 7.05996 12.6902C7.20842 12.8387 7.29183 13.04 7.29183 13.25C7.29183 13.46 7.20842 13.6613 7.05996 13.8098C6.91149 13.9583 6.71013 14.0417 6.50016 14.0417C6.2902 14.0417 6.08884 13.9583 5.94037 13.8098C5.7919 13.6613 5.7085 13.46 5.7085 13.25C5.7085 13.04 5.7919 12.8387 5.94037 12.6902C6.08884 12.5418 6.2902 12.4583 6.50016 12.4583Z" fill="#404040"/>
</svg>
