<svg width="16" height="16" viewBox="0 0 16 16" fill="none" xmlns="http://www.w3.org/2000/svg">
<path fill-rule="evenodd" clip-rule="evenodd" d="M0.5 8C0.5 3.86 3.8525 0.5 7.9925 0.5C12.14 0.5 15.5 3.86 15.5 8C15.5 12.14 12.14 15.5 7.9925 15.5C3.8525 15.5 0.5 12.14 0.5 8ZM10.9775 5H13.19C12.47 3.7625 11.3225 2.8025 9.9425 2.33C10.3925 3.1625 10.7375 4.0625 10.9775 5ZM8 2.03C8.6225 2.93 9.11 3.9275 9.4325 5H6.5675C6.89 3.9275 7.3775 2.93 8 2.03ZM2 8C2 8.5175 2.075 9.02 2.195 9.5H4.73C4.67 9.005 4.625 8.51 4.625 8C4.625 7.49 4.67 6.995 4.73 6.5H2.195C2.075 6.98 2 7.4825 2 8ZM2.81 11H5.0225C5.2625 11.9375 5.6075 12.8375 6.0575 13.67C4.6775 13.1975 3.53 12.245 2.81 11ZM2.81 5H5.0225C5.2625 4.0625 5.6075 3.1625 6.0575 2.33C4.6775 2.8025 3.53 3.755 2.81 5ZM8 13.97C7.3775 13.07 6.89 12.0725 6.5675 11H9.4325C9.11 12.0725 8.6225 13.07 8 13.97ZM6.125 8C6.125 8.51 6.1775 9.005 6.245 9.5H9.755C9.8225 9.005 9.875 8.51 9.875 8C9.875 7.49 9.8225 6.9875 9.755 6.5H6.245C6.1775 6.9875 6.125 7.49 6.125 8ZM9.9425 13.67C10.3925 12.8375 10.7375 11.9375 10.9775 11H13.19C12.47 12.2375 11.3225 13.1975 9.9425 13.67ZM11.375 8C11.375 8.51 11.33 9.005 11.27 9.5H13.805C13.925 9.02 14 8.5175 14 8C14 7.4825 13.925 6.98 13.805 6.5H11.27C11.33 6.995 11.375 7.49 11.375 8Z" fill="white"/>
</svg>
