<svg width="20" height="20" viewBox="0 0 20 20" fill="none" xmlns="http://www.w3.org/2000/svg">
<path d="M8.52051 10.695C8.85548 11.1429 9.28285 11.5135 9.77362 11.7817C10.2644 12.0499 10.8071 12.2094 11.3649 12.2493C11.9227 12.2893 12.4826 12.2088 13.0066 12.0133C13.5305 11.8178 14.0063 11.5119 14.4017 11.1163L16.7417 8.77586C17.4521 8.04018 17.8452 7.05485 17.8363 6.0321C17.8274 5.00934 17.4173 4.031 16.6942 3.30777C15.9711 2.58455 14.9929 2.17432 13.9704 2.16543C12.9478 2.15654 11.9627 2.54971 11.2271 3.26026L9.88551 4.5943" stroke="#191C1F" stroke-width="1.6" stroke-linecap="round" stroke-linejoin="round"/>
<path d="M11.6407 9.1347C11.3057 8.6868 10.8783 8.31619 10.3876 8.04801C9.8968 7.77983 9.35411 7.62036 8.7963 7.5804C8.23848 7.54044 7.67861 7.62094 7.15463 7.81643C6.63066 8.01193 6.15485 8.31784 5.75948 8.71343L3.41948 11.0539C2.70907 11.7895 2.31597 12.7749 2.32485 13.7976C2.33374 14.8204 2.7439 15.7987 3.46699 16.5219C4.19008 17.2452 5.16825 17.6554 6.19082 17.6643C7.21339 17.6732 8.19853 17.28 8.93408 16.5695L10.2679 15.2354" stroke="#191C1F" stroke-width="1.6" stroke-linecap="round" stroke-linejoin="round"/>
</svg>
