<svg width="17" height="15" viewBox="0 0 17 15" fill="none" xmlns="http://www.w3.org/2000/svg">
<path d="M6.78066 1.95833L5.19733 3.54167H2.16683V13.0417H14.8335V3.54167H11.803L10.2197 1.95833H6.78066ZM6.12516 0.375H10.8752L12.4585 1.95833H15.6252C15.8351 1.95833 16.0365 2.04174 16.185 2.19021C16.3334 2.33867 16.4168 2.54004 16.4168 2.75V13.8333C16.4168 14.0433 16.3334 14.2447 16.185 14.3931C16.0365 14.5416 15.8351 14.625 15.6252 14.625H1.37516C1.1652 14.625 0.963836 14.5416 0.81537 14.3931C0.666904 14.2447 0.583496 14.0433 0.583496 13.8333V2.75C0.583496 2.54004 0.666904 2.33867 0.81537 2.19021C0.963836 2.04174 1.1652 1.95833 1.37516 1.95833H4.54183L6.12516 0.375ZM6.63183 3.96125C7.56449 3.51732 8.6246 3.41941 9.62279 3.68502C10.621 3.95063 11.4922 4.56245 12.0809 5.41119C12.6696 6.25994 12.9374 7.29033 12.8365 8.31831C12.7355 9.34629 12.2724 10.3049 11.5299 11.0229L9.88558 7.975H11.2702L11.271 7.89583C11.2711 7.43367 11.1555 6.97882 10.9349 6.57271C10.7143 6.1666 10.3956 5.82213 10.0078 5.57065C9.62009 5.31917 9.17558 5.16868 8.71481 5.13288C8.25403 5.09708 7.79161 5.1771 7.36966 5.36567L6.63183 3.96125ZM10.3345 11.8463C9.40404 12.2792 8.35059 12.3697 7.35999 12.1016C6.36938 11.8336 5.50529 11.2242 4.92019 10.3811C4.33509 9.53804 4.06658 8.51537 4.16205 7.49359C4.25751 6.47181 4.71081 5.51658 5.44196 4.79646L7.11475 7.89583H5.72933C5.72918 8.35496 5.84313 8.80694 6.06093 9.21112C6.27872 9.61531 6.59355 9.95903 6.97709 10.2114C7.36064 10.4638 7.80089 10.6169 8.25827 10.657C8.71565 10.6971 9.17582 10.6229 9.59741 10.441L10.3345 11.8455V11.8463Z" fill="#404040"/>
</svg>
